<svg width="35" height="24" viewBox="0 0 35 24" fill="none" xmlns="http://www.w3.org/2000/svg">
<path fill-rule="evenodd" clip-rule="evenodd" d="M1.029 4.86967e-07H33.971C34.2439 4.86967e-07 34.5056 0.10841 34.6986 0.301384C34.8916 0.494359 35 0.756092 35 1.029V1.034C35 1.3069 34.8916 1.56864 34.6986 1.76161C34.5056 1.95459 34.2439 2.063 33.971 2.063H1.029C0.756093 2.063 0.494365 1.95459 0.30139 1.76161C0.108415 1.56864 1.94368e-06 1.3069 1.94368e-06 1.034V1.029C-0.000129606 0.893833 0.0263966 0.759967 0.0780621 0.635064C0.129728 0.51016 0.205518 0.396672 0.301096 0.301095C0.396674 0.205517 0.510162 0.129722 0.635065 0.0780568C0.759969 0.0263913 0.893834 -0.000131063 1.029 4.86967e-07ZM1.029 10.969H33.971C34.1063 10.969 34.2403 10.9957 34.3652 11.0475C34.4902 11.0994 34.6037 11.1753 34.6993 11.2711C34.7949 11.3669 34.8707 11.4805 34.9223 11.6056C34.9738 11.7307 35.0003 11.8647 35 12C34.9997 12.2727 34.8912 12.5342 34.6983 12.727C34.5053 12.9197 34.2437 13.028 33.971 13.028H1.029C0.756267 13.028 0.494687 12.9197 0.301741 12.727C0.108794 12.5342 0.000266992 12.2727 1.94368e-06 12C-0.000261027 11.8647 0.0261626 11.7307 0.0777569 11.6056C0.129351 11.4805 0.205103 11.3669 0.30068 11.2711C0.396258 11.1753 0.509785 11.0994 0.63476 11.0475C0.759735 10.9957 0.893703 10.969 1.029 10.969ZM1.029 21.938H33.971C34.2437 21.938 34.5053 22.0463 34.6983 22.239C34.8912 22.4318 34.9997 22.6933 35 22.966V22.971C35 23.2439 34.8916 23.5056 34.6986 23.6986C34.5056 23.8916 34.2439 24 33.971 24H1.029C0.756093 24 0.494365 23.8916 0.30139 23.6986C0.108415 23.5056 1.94368e-06 23.2439 1.94368e-06 22.971V22.966C1.94368e-06 22.6931 0.108415 22.4314 0.30139 22.2384C0.494365 22.0454 0.756093 21.937 1.029 21.937V21.938Z" fill="#546076"/>
</svg>
