<svg width="32" height="35" viewBox="0 0 32 35" fill="none" xmlns="http://www.w3.org/2000/svg">
<path fill-rule="evenodd" clip-rule="evenodd" d="M6.51599 6.94002C8.98569 4.71041 12.1709 3.43682 15.497 3.34898C18.8231 3.26115 22.0711 4.36486 24.655 6.46101L20.503 6.61801C20.2471 6.62265 20.0034 6.72878 19.8257 6.91303C19.6481 7.09729 19.5508 7.34458 19.5555 7.60052C19.5601 7.85645 19.6663 8.10006 19.8505 8.27775C20.0348 8.45544 20.2821 8.55265 20.538 8.54801H20.574L26.949 8.31201C27.1988 8.30319 27.4354 8.19757 27.6088 8.01749C27.7821 7.83741 27.8787 7.59698 27.878 7.34702V7.23302L27.642 0.933014C27.6373 0.806354 27.6076 0.681868 27.5548 0.566658C27.502 0.451449 27.4269 0.347774 27.334 0.261555C27.2411 0.175336 27.1322 0.108259 27.0134 0.0641559C26.8945 0.020053 26.7681 -0.000210657 26.6415 0.00451693C26.5148 0.00924452 26.3904 0.0388711 26.2751 0.0917095C26.1599 0.144548 26.0562 0.219561 25.97 0.312466C25.8838 0.405371 25.8167 0.514348 25.7726 0.633175C25.7285 0.752003 25.7083 0.878357 25.713 1.00502L25.863 4.95802C22.9221 2.57278 19.2252 1.3179 15.44 1.42004C11.6548 1.52219 8.03097 2.97464 5.22302 5.51502C3.10437 7.43235 1.54244 9.88594 0.702024 12.617C-0.13839 15.348 -0.226159 18.2553 0.447996 21.032C0.498778 21.2421 0.618825 21.429 0.788816 21.5625C0.958807 21.6961 1.16885 21.7684 1.38501 21.768C1.46199 21.769 1.53869 21.7592 1.61297 21.739C1.86106 21.6779 2.07489 21.5211 2.20758 21.3027C2.34027 21.0844 2.38102 20.8224 2.32098 20.574C1.72809 18.1343 1.80491 15.5797 2.54327 13.18C3.28163 10.7803 4.65414 8.62446 6.51599 6.94002ZM31.552 13.973C31.4899 13.7263 31.3327 13.5142 31.1148 13.3828C30.8969 13.2515 30.6358 13.2116 30.3887 13.272C30.1415 13.3323 29.9282 13.4879 29.7953 13.7048C29.6623 13.9217 29.6205 14.1824 29.679 14.43C30.3687 17.2769 30.1442 20.2687 29.0374 22.9807C27.9305 25.6928 25.9976 27.9873 23.5129 29.5387C21.0282 31.0901 18.118 31.8195 15.1954 31.6233C12.2727 31.4272 9.48611 30.3155 7.23102 28.446L11.431 28.067C11.686 28.0433 11.9211 27.9192 12.0847 27.7221C12.2482 27.525 12.3267 27.271 12.303 27.016C12.2792 26.761 12.1552 26.5259 11.9581 26.3623C11.761 26.1988 11.507 26.1203 11.252 26.144L4.89898 26.716C4.77264 26.7276 4.6498 26.7639 4.53753 26.823C4.42527 26.8821 4.32582 26.9628 4.24481 27.0605C4.1638 27.1581 4.10286 27.2708 4.06549 27.392C4.02811 27.5133 4.015 27.6407 4.02698 27.767L4.599 34.121C4.61997 34.3606 4.72982 34.5836 4.90692 34.7463C5.08401 34.9089 5.31557 34.9994 5.55603 35C5.58487 35.0013 5.61376 34.9989 5.64203 34.993C5.76837 34.9815 5.89115 34.9451 6.00342 34.886C6.11568 34.8269 6.21519 34.7462 6.2962 34.6486C6.37721 34.5509 6.43815 34.4382 6.47552 34.317C6.5129 34.1958 6.52595 34.0683 6.51398 33.942L6.17102 30.075C8.77763 32.1859 11.9897 33.4103 15.34 33.57C15.612 33.584 15.884 33.591 16.148 33.591C18.5494 33.5881 20.9188 33.0402 23.0778 31.9888C25.2367 30.9374 27.1289 29.4098 28.6119 27.5211C30.095 25.6324 31.1301 23.4318 31.6393 21.085C32.1486 18.7383 32.1188 16.3065 31.552 13.973Z" fill="#546076"/>
</svg>
