<svg width="44" height="41" viewBox="0 0 44 41" fill="none" xmlns="http://www.w3.org/2000/svg">
<path fill-rule="evenodd" clip-rule="evenodd" d="M18.451 33.2099C17.6779 33.2038 16.9205 33.4275 16.2748 33.8527C15.6292 34.278 15.1245 34.8856 14.8249 35.5982C14.5252 36.3109 14.4441 37.0965 14.5919 37.8553C14.7397 38.6141 15.1097 39.3119 15.6549 39.8601C16.2 40.4082 16.8958 40.7819 17.6538 40.9338C18.4118 41.0857 19.1979 41.0089 19.9122 40.7131C20.6264 40.4173 21.2367 39.9159 21.6654 39.2725C22.0941 38.6292 22.322 37.873 22.32 37.0999C22.3224 36.0711 21.9162 35.0835 21.1907 34.3541C20.4652 33.6246 19.4798 33.2131 18.451 33.2099ZM18.451 38.8199C18.1103 38.8221 17.7767 38.7231 17.4924 38.5355C17.2081 38.3478 16.986 38.0799 16.8541 37.7658C16.7222 37.4517 16.6866 37.1056 16.7517 36.7712C16.8168 36.4368 16.9798 36.1293 17.2199 35.8876C17.46 35.646 17.7664 35.4812 18.1004 35.4139C18.4343 35.3466 18.7807 35.38 19.0956 35.5098C19.4106 35.6397 19.6799 35.8602 19.8694 36.1433C20.0588 36.4263 20.16 36.7593 20.16 37.0999C20.1611 37.5545 19.9817 37.9909 19.6613 38.3134C19.3409 38.6359 18.9056 38.818 18.451 38.8199ZM32.024 33.2099C31.251 33.204 30.4936 33.4279 29.8481 33.8532C29.2026 34.2786 28.6981 34.8863 28.3986 35.5989C28.0991 36.3116 28.0182 37.0971 28.166 37.8559C28.3139 38.6147 28.684 39.3124 29.2292 39.8604C29.7744 40.4085 30.4702 40.7821 31.2282 40.9339C31.9862 41.0857 32.7722 41.0088 33.4864 40.713C34.2006 40.4171 34.8108 39.9158 35.2395 39.2725C35.6681 38.6292 35.896 37.873 35.894 37.0999C35.8964 36.071 35.4901 35.0832 34.7643 34.3537C34.0386 33.6242 33.0529 33.2128 32.024 33.2099ZM32.024 38.8199C31.6833 38.8221 31.3497 38.7231 31.0654 38.5355C30.7811 38.3478 30.559 38.0799 30.4271 37.7658C30.2952 37.4517 30.2596 37.1056 30.3247 36.7712C30.3898 36.4368 30.5528 36.1293 30.7929 35.8876C31.033 35.646 31.3394 35.4812 31.6734 35.4139C32.0073 35.3466 32.3537 35.38 32.6686 35.5098C32.9836 35.6397 33.2529 35.8602 33.4424 36.1433C33.6318 36.4263 33.733 36.7593 33.733 37.0999C33.7341 37.5545 33.5547 37.9909 33.2343 38.3134C32.9139 38.6359 32.4786 38.818 32.024 38.8199ZM32.977 12.6899H17.5C17.2109 12.6899 16.9337 12.8048 16.7293 13.0092C16.5248 13.2136 16.41 13.4909 16.41 13.78C16.41 14.0691 16.5248 14.3463 16.7293 14.5507C16.9337 14.7551 17.2109 14.8699 17.5 14.8699H32.982C33.2711 14.8693 33.5481 14.7538 33.752 14.5489C33.956 14.344 34.0702 14.0665 34.0695 13.7774C34.0688 13.4883 33.9534 13.2113 33.7485 13.0074C33.5436 12.8034 33.2661 12.6892 32.977 12.6899ZM32.134 18.3399H18.334C18.0449 18.3399 17.7677 18.4548 17.5633 18.6592C17.3589 18.8637 17.244 19.1409 17.244 19.43C17.244 19.7191 17.3589 19.9963 17.5633 20.2008C17.7677 20.4052 18.0449 20.52 18.334 20.52H32.134C32.2771 20.52 32.4189 20.4917 32.5511 20.437C32.6834 20.3822 32.8035 20.302 32.9048 20.2008C33.006 20.0995 33.0862 19.9794 33.141 19.8471C33.1958 19.7149 33.224 19.5731 33.224 19.43C33.224 19.2869 33.1958 19.145 33.141 19.0128C33.0862 18.8805 33.006 18.7605 32.9048 18.6592C32.8035 18.558 32.6834 18.4777 32.5511 18.4229C32.4189 18.3681 32.2771 18.3399 32.134 18.3399ZM43.516 7.84992C43.3151 7.59825 43.0604 7.39489 42.7705 7.25471C42.4806 7.11453 42.163 7.04115 41.841 7.03999H8.189L7.50901 3.71992C7.43921 3.37981 7.28866 3.06145 7.07007 2.79169C6.85148 2.52194 6.57125 2.30877 6.25299 2.16999L1.51099 0.0899126C1.24757 -0.0143097 0.953911 -0.0117502 0.692325 0.0969927C0.43074 0.205736 0.221834 0.412184 0.109928 0.672432C-0.00197873 0.93268 -0.00806067 1.22625 0.09296 1.49091C0.193981 1.75558 0.394152 1.97042 0.651004 2.08991L5.39301 4.15998L10.62 29.7099C10.7192 30.1988 10.9837 30.6388 11.3691 30.9556C11.7544 31.2725 12.2371 31.447 12.736 31.4499H38.619C38.9081 31.4499 39.1853 31.3351 39.3897 31.1307C39.5942 30.9263 39.709 30.649 39.709 30.3599C39.709 30.0708 39.5942 29.7936 39.3897 29.5892C39.1853 29.3848 38.9081 29.27 38.619 29.27H12.737L12.101 26.16H38.819C39.3164 26.1574 39.7979 25.9841 40.183 25.6693C40.5682 25.3544 40.8336 24.917 40.935 24.43L43.957 9.65998C44.0226 9.34447 44.0171 9.01825 43.9408 8.70515C43.8645 8.39204 43.7194 8.09988 43.516 7.84992ZM38.816 23.9899H11.656L8.63401 9.21992H41.841L38.816 23.9899Z" fill="#546076"/>
</svg>
