<svg width="45" height="46" viewBox="0 0 45 46" fill="none" xmlns="http://www.w3.org/2000/svg">
<path fill-rule="evenodd" clip-rule="evenodd" d="M24.638 21.88H21.371C20.7173 21.88 20.0903 21.6202 19.628 21.1579C19.1658 20.6957 18.9061 20.0688 18.9061 19.415C18.9061 18.7612 19.1658 18.1342 19.628 17.672C20.0903 17.2097 20.7173 16.9499 21.371 16.9499H27.138C27.4351 16.9499 27.7199 16.832 27.93 16.6219C28.14 16.4119 28.258 16.127 28.258 15.8299C28.258 15.5329 28.14 15.2481 27.93 15.0381C27.7199 14.828 27.4351 14.7099 27.138 14.7099H24.138V12.41C24.1293 12.1178 24.0072 11.8405 23.7974 11.6369C23.5877 11.4334 23.3069 11.3195 23.0146 11.3195C22.7223 11.3195 22.4414 11.4334 22.2317 11.6369C22.0219 11.8405 21.8998 12.1178 21.891 12.41V14.7099H21.376C20.1282 14.7099 18.9315 15.2056 18.0491 16.088C17.1668 16.9703 16.6711 18.1672 16.6711 19.415C16.6711 20.6629 17.1668 21.8596 18.0491 22.7419C18.9315 23.6243 20.1282 24.12 21.376 24.12H24.6431C25.2968 24.12 25.9238 24.3797 26.3861 24.842C26.8484 25.3043 27.108 25.9312 27.108 26.5849C27.108 27.2387 26.8484 27.8657 26.3861 28.328C25.9238 28.7902 25.2968 29.05 24.6431 29.05H18.7731C18.476 29.05 18.1911 29.168 17.9811 29.378C17.771 29.5881 17.6531 29.873 17.6531 30.17C17.6531 30.4671 17.771 30.7518 17.9811 30.9619C18.1911 31.1719 18.476 31.29 18.7731 31.29H21.8821V33.63C21.8821 33.9278 22.0004 34.2134 22.211 34.424C22.4216 34.6346 22.7072 34.753 23.0051 34.753C23.3029 34.753 23.5885 34.6346 23.7991 34.424C24.0097 34.2134 24.128 33.9278 24.128 33.63V31.29H24.699C25.3169 31.286 25.9279 31.1603 26.4972 30.9201C27.0665 30.68 27.583 30.3301 28.0171 29.8904C28.4511 29.4506 28.7943 28.9296 29.0271 28.3573C29.2598 27.7849 29.3775 27.1723 29.3735 26.5544C29.3695 25.9365 29.2439 25.3256 29.0037 24.7563C28.7636 24.187 28.4137 23.6705 27.9739 23.2364C27.5342 22.8024 27.0133 22.4592 26.4409 22.2264C25.8685 21.9937 25.2559 21.876 24.638 21.88ZM38.5591 7.43991C34.9589 3.83648 30.2206 1.59305 25.1516 1.09177C20.0826 0.590485 14.9967 1.86242 10.7604 4.69089C6.52419 7.51936 3.39983 11.7293 1.91981 16.6032C0.439802 21.4772 0.695702 26.7136 2.64391 31.42C4.59211 36.1264 8.11209 40.0116 12.6039 42.4135C17.0958 44.8155 22.2815 45.5855 27.2775 44.5924C32.2734 43.5992 36.7704 40.9043 40.0021 36.967C43.2337 33.0297 45 28.0937 45 23C45.0099 20.1091 44.4456 17.2451 43.3399 14.5741C42.2342 11.903 40.6092 9.47803 38.5591 7.43991ZM23 42.75C19.094 42.7494 15.2758 41.5905 12.0284 39.42C8.78089 37.2495 6.24994 34.1648 4.75557 30.5559C3.2612 26.947 2.87049 22.976 3.63289 19.1451C4.39529 15.3142 6.27654 11.7953 9.03874 9.03354C11.8009 6.27175 15.3201 4.39106 19.1511 3.62924C22.9822 2.86743 26.9531 3.25871 30.5618 4.75363C34.1704 6.24855 37.2548 8.78 39.4248 12.0278C41.5948 15.2756 42.753 19.0939 42.753 23C42.7462 28.2364 40.6628 33.2564 36.9598 36.9588C33.2568 40.6613 28.2365 42.7439 23 42.75Z" fill="#546076"/>
</svg>
