<svg width="44" height="38" viewBox="0 0 44 38" fill="none" xmlns="http://www.w3.org/2000/svg">
<path fill-rule="evenodd" clip-rule="evenodd" d="M4.735 9.30007C5.65074 9.28352 6.54121 8.99695 7.29475 8.47634C8.04828 7.95572 8.63133 7.22421 8.97077 6.37355C9.31022 5.52289 9.39095 4.59096 9.20284 3.6946C9.01474 2.79823 8.56617 1.9773 7.91339 1.33486C7.26061 0.692415 6.43268 0.25704 5.53343 0.0832687C4.63418 -0.0905026 3.70363 0.00506562 2.8585 0.358049C2.01336 0.711032 1.29126 1.30565 0.782737 2.0674C0.274218 2.82915 0.00192458 3.72415 2.85277e-06 4.64003C0.0105697 5.88569 0.515219 7.07618 1.40307 7.94997C2.29092 8.82375 3.48934 9.30939 4.735 9.30007ZM4.735 2.16005C5.2245 2.16971 5.70024 2.32372 6.1025 2.6028C6.50477 2.88188 6.81563 3.27353 6.99607 3.72865C7.17651 4.18378 7.21849 4.68213 7.11674 5.16103C7.01498 5.63993 6.77403 6.0781 6.42413 6.42055C6.07423 6.76299 5.63097 6.99442 5.14999 7.08583C4.66901 7.17725 4.17174 7.12454 3.7206 6.93434C3.26946 6.74414 2.88456 6.42492 2.61421 6.01674C2.34387 5.60856 2.20011 5.12962 2.201 4.64003C2.20944 3.97554 2.48084 3.34142 2.95578 2.8766C3.43072 2.41179 4.07049 2.15418 4.735 2.16005ZM4.735 23.64C5.64872 23.6215 6.53663 23.3336 7.28739 22.8125C8.03816 22.2914 8.61835 21.5603 8.95522 20.7107C9.29208 19.8612 9.37062 18.931 9.18099 18.037C8.99137 17.143 8.54201 16.3248 7.88927 15.6852C7.23652 15.0456 6.40946 14.6129 5.51179 14.4414C4.61411 14.2699 3.6858 14.3673 2.84325 14.7213C2.00069 15.0753 1.28142 15.6702 0.775615 16.4314C0.26981 17.1926 -6.58997e-06 18.0861 2.85277e-06 19C0.0131974 20.243 0.51933 21.4299 1.40718 22.2999C2.29504 23.17 3.49198 23.652 4.735 23.64ZM4.735 16.51C5.22547 16.5189 5.70238 16.6724 6.1059 16.9513C6.50941 17.2302 6.82155 17.6222 7.00313 18.0779C7.18471 18.5336 7.22765 19.0328 7.12655 19.5128C7.02545 19.9928 6.78482 20.4323 6.43486 20.776C6.08491 21.1198 5.64121 21.3525 5.15946 21.445C4.67772 21.5374 4.17939 21.4856 3.72702 21.2959C3.27465 21.1062 2.88839 20.787 2.61672 20.3786C2.34505 19.9701 2.20008 19.4906 2.2 19C2.20634 18.3338 2.47689 17.6972 2.95221 17.2304C3.42754 16.7635 4.06876 16.5044 4.735 16.51ZM4.735 38C5.65016 37.9825 6.53974 37.695 7.2921 37.1737C8.04446 36.6524 8.62607 35.9204 8.96392 35.0697C9.30178 34.219 9.38083 33.2876 9.19115 32.3921C9.00147 31.4967 8.55152 30.6772 7.89776 30.0365C7.24401 29.3959 6.41558 28.9626 5.51647 28.7912C4.61736 28.6197 3.68762 28.7175 2.84396 29.0725C2.00029 29.4276 1.28029 30.024 0.774329 30.7868C0.268367 31.5495 -0.00101125 32.4447 2.85277e-06 33.36C0.0158265 34.6022 0.52279 35.7875 1.41007 36.657C2.29734 37.5265 3.49276 38.0094 4.735 38ZM4.735 30.86C5.22407 30.8696 5.69942 31.0234 6.10147 31.302C6.50353 31.5807 6.81441 31.9719 6.99515 32.4264C7.17589 32.881 7.21845 33.3787 7.11751 33.8573C7.01657 34.336 6.77661 34.7741 6.4277 35.117C6.07879 35.4598 5.63646 35.6921 5.15612 35.7847C4.67579 35.8772 4.17883 35.8259 3.72752 35.6372C3.2762 35.4485 2.8906 35.1309 2.61906 34.724C2.34751 34.3171 2.20208 33.8392 2.201 33.35C2.20734 32.6839 2.47775 32.0477 2.95286 31.5808C3.42797 31.114 4.06893 30.8547 4.735 30.86ZM15.805 5.73H42.895C43.1828 5.73 43.4587 5.61573 43.6622 5.41225C43.8657 5.20877 43.98 4.9328 43.98 4.64504C43.98 4.35728 43.8657 4.0813 43.6622 3.87782C43.4587 3.67435 43.1828 3.56008 42.895 3.56008H15.8C15.5122 3.56008 15.2363 3.67435 15.0328 3.87782C14.8293 4.0813 14.715 4.35728 14.715 4.64504C14.715 4.9328 14.8293 5.20877 15.0328 5.41225C15.2363 5.61573 15.5122 5.73 15.8 5.73H15.805ZM15.805 20.08H42.895C43.1814 20.08 43.4561 19.9662 43.6587 19.7637C43.8612 19.5611 43.975 19.2865 43.975 19C43.975 18.7136 43.8612 18.4389 43.6587 18.2363C43.4561 18.0338 43.1814 17.9201 42.895 17.9201H15.8C15.5136 17.9201 15.2389 18.0338 15.0363 18.2363C14.8338 18.4389 14.72 18.7136 14.72 19C14.72 19.2865 14.8338 19.5611 15.0363 19.7637C15.2389 19.9662 15.5136 20.08 15.8 20.08H15.805ZM15.805 34.4301H42.895C43.1828 34.4301 43.4587 34.3157 43.6622 34.1122C43.8657 33.9087 43.98 33.6327 43.98 33.345C43.98 33.0572 43.8657 32.7813 43.6622 32.5778C43.4587 32.3743 43.1828 32.26 42.895 32.26H15.8C15.5122 32.26 15.2363 32.3743 15.0328 32.5778C14.8293 32.7813 14.715 33.0572 14.715 33.345C14.715 33.6327 14.8293 33.9087 15.0328 34.1122C15.2363 34.3157 15.5122 34.4301 15.8 34.4301H15.805Z" fill="#546076"/>
</svg>
