<svg width="45" height="44" viewBox="0 0 45 44" fill="none" xmlns="http://www.w3.org/2000/svg">
<path fill-rule="evenodd" clip-rule="evenodd" d="M41.307 6.59933e-06C40.5745 -0.00137657 39.858 0.214694 39.2484 0.620856C38.6388 1.02702 38.1635 1.60495 37.8827 2.2815C37.6019 2.95805 37.5282 3.70281 37.671 4.42127C37.8138 5.13973 38.1666 5.79963 38.6848 6.31739C39.2029 6.83514 39.8632 7.18739 40.5817 7.3296C41.3003 7.4718 42.0449 7.39747 42.7212 7.1161C43.3976 6.83472 43.9751 6.35896 44.3808 5.74903C44.7865 5.1391 45.002 4.42246 45 3.68995C45.0003 3.20504 44.9049 2.72487 44.7193 2.27686C44.5338 1.82886 44.2618 1.42185 43.9187 1.07911C43.5757 0.736368 43.1685 0.464718 42.7203 0.279548C42.2722 0.0943775 41.7919 -0.000650881 41.307 6.59933e-06ZM41.307 5.49C40.951 5.49 40.603 5.38444 40.307 5.18665C40.011 4.98887 39.7802 4.7077 39.644 4.37879C39.5078 4.04988 39.4721 3.68804 39.5416 3.33887C39.611 2.98971 39.7825 2.66898 40.0342 2.41724C40.2859 2.16551 40.6067 1.99402 40.9558 1.92457C41.305 1.85511 41.6669 1.89075 41.9958 2.02698C42.3247 2.16322 42.6059 2.39394 42.8036 2.68995C43.0014 2.98596 43.107 3.33394 43.107 3.68995C43.1078 3.92655 43.0618 4.16102 42.9716 4.37977C42.8814 4.59851 42.7489 4.7973 42.5815 4.96461C42.4142 5.13191 42.2155 5.26444 41.9968 5.35462C41.778 5.4448 41.5436 5.49079 41.307 5.49ZM4.69298 21.0501C3.96051 21.0489 3.24418 21.2651 2.63471 21.6714C2.02524 22.0777 1.55008 22.6557 1.26941 23.3323C0.988745 24.0088 0.915196 24.7534 1.0581 25.4718C1.20099 26.1902 1.55392 26.85 2.07213 27.3677C2.59035 27.8853 3.25054 28.2375 3.96909 28.3796C4.68764 28.5218 5.43222 28.4474 6.10848 28.166C6.78474 27.8846 7.36225 27.4089 7.76787 26.799C8.1735 26.1891 8.38896 25.4725 8.38698 24.74C8.38738 24.255 8.29208 23.7747 8.10653 23.3265C7.92098 22.8784 7.64884 22.4712 7.30568 22.1284C6.96253 21.7856 6.55512 21.514 6.10679 21.329C5.65845 21.1439 5.17801 21.0491 4.69298 21.0501ZM4.69298 26.54C4.33698 26.54 3.98898 26.4345 3.69297 26.2367C3.39696 26.0389 3.16624 25.7577 3.03 25.4288C2.89377 25.0999 2.85812 24.738 2.92757 24.3888C2.99702 24.0396 3.16847 23.7189 3.4202 23.4672C3.67194 23.2154 3.99267 23.0441 4.34183 22.9746C4.691 22.9052 5.05292 22.9408 5.38183 23.077C5.71073 23.2133 5.99185 23.444 6.18964 23.74C6.38743 24.036 6.49299 24.384 6.49299 24.74C6.49391 24.9766 6.44798 25.2111 6.35785 25.4299C6.26772 25.6487 6.13517 25.8476 5.96784 26.0149C5.80051 26.1822 5.60171 26.3148 5.38291 26.4049C5.16411 26.495 4.92962 26.541 4.69298 26.54ZM15.671 10.07C14.9389 10.0688 14.223 10.2848 13.6137 10.6907C13.0045 11.0965 12.5293 11.6739 12.2484 12.3499C11.9674 13.0258 11.8933 13.77 12.0354 14.4882C12.1774 15.2063 12.5294 15.8661 13.0466 16.3842C13.5638 16.9022 14.2231 17.2552 14.941 17.3984C15.6588 17.5417 16.4031 17.4688 17.0795 17.189C17.756 16.9091 18.3342 16.4348 18.741 15.8262C19.1478 15.2176 19.365 14.5021 19.365 13.77C19.3663 13.2843 19.2717 12.803 19.0866 12.3539C18.9015 11.9048 18.6295 11.4966 18.2863 11.1528C17.9431 10.8091 17.5354 10.5365 17.0866 10.3507C16.6378 10.1649 16.1568 10.0694 15.671 10.07ZM15.671 15.5601C15.3146 15.5601 14.9661 15.4542 14.6699 15.256C14.3737 15.0578 14.143 14.776 14.0071 14.4465C13.8711 14.117 13.8361 13.7546 13.9063 13.4052C13.9766 13.0557 14.149 12.735 14.4018 12.4836C14.6545 12.2323 14.9762 12.0617 15.326 11.9934C15.6758 11.9251 16.0381 11.9621 16.3668 12.0999C16.6955 12.2376 16.9759 12.4699 17.1725 12.7672C17.3691 13.0645 17.473 13.4136 17.471 13.77C17.4709 14.0059 17.4241 14.2394 17.3335 14.4572C17.2429 14.6749 17.1101 14.8726 16.9429 15.0389C16.7756 15.2053 16.5772 15.337 16.3589 15.4264C16.1406 15.5158 15.9069 15.5613 15.671 15.5601ZM23.452 17.85C22.7199 17.8488 22.004 18.0649 21.3948 18.4707C20.7855 18.8765 20.3103 19.4539 20.0294 20.1299C19.7484 20.8059 19.6743 21.5501 19.8164 22.2682C19.9584 22.9863 20.3104 23.6461 20.8276 24.1642C21.3448 24.6822 22.0041 25.0352 22.7219 25.1785C23.4398 25.3217 24.1841 25.2487 24.8605 24.9689C25.537 24.689 26.1152 24.2148 26.522 23.6062C26.9288 22.9976 27.146 22.2821 27.146 21.5501C27.1473 21.0643 27.0527 20.583 26.8676 20.1339C26.6825 19.6848 26.4105 19.2766 26.0673 18.9329C25.7241 18.5891 25.3164 18.3166 24.8676 18.1307C24.4188 17.9449 23.9377 17.8495 23.452 17.85ZM23.452 23.34C23.0956 23.34 22.7472 23.2341 22.4509 23.0359C22.1547 22.8377 21.924 22.5559 21.7881 22.2264C21.6521 21.897 21.6171 21.5346 21.6873 21.1852C21.7576 20.8358 21.93 20.515 22.1828 20.2637C22.4355 20.0123 22.7572 19.8416 23.107 19.7733C23.4568 19.705 23.819 19.7421 24.1478 19.8799C24.4765 20.0177 24.7569 20.2499 24.9535 20.5472C25.1501 20.8446 25.254 21.1936 25.252 21.5501C25.2519 21.7859 25.2051 22.0194 25.1145 22.2372C25.0239 22.455 24.8911 22.6527 24.7239 22.819C24.5566 22.9853 24.3582 23.1169 24.1399 23.2063C23.9216 23.2957 23.6879 23.3412 23.452 23.34ZM24.728 18.9301L38.681 4.94996L40.024 6.29005L26.071 20.27L24.728 18.9301ZM16.949 16.38L18.288 15.03L22.197 18.9301L20.858 20.27L16.949 16.38ZM5.97199 22.12L13.063 15.03L14.405 16.37L7.31399 23.47L5.97199 22.12ZM1.029 42.1H44.971V44H1.029V42.1ZM40.358 15.59H42.258V43.0501H40.358V15.59ZM22.971 29.33H24.871V43.0501H22.971V29.33ZM3.74399 32.07H5.64399V43.0501H3.74399V32.07ZM14.723 23.82H16.623V43.0501H14.723V23.82Z" fill="#546076"/>
</svg>
