<svg width="44" height="44" viewBox="0 0 44 44" fill="none" xmlns="http://www.w3.org/2000/svg">
<path fill-rule="evenodd" clip-rule="evenodd" d="M42.039 17.75C41.211 17.63 40.362 17.51 39.514 17.4C39.4656 17.3922 39.4203 17.3712 39.3829 17.3395C39.3456 17.3078 39.3176 17.2664 39.302 17.22C38.9105 15.7985 38.3435 14.4313 37.614 13.15C37.5899 13.1062 37.5793 13.0562 37.5836 13.0063C37.5878 12.9565 37.6068 12.9091 37.638 12.87C38.159 12.19 38.676 11.51 39.174 10.83C39.4988 10.3845 39.6543 9.83794 39.6127 9.28821C39.5711 8.73848 39.3351 8.22149 38.947 7.82996L36.166 5.05005C35.7744 4.66152 35.2568 4.42572 34.7067 4.38538C34.1565 4.34503 33.6101 4.50271 33.166 4.82996C32.494 5.31996 31.809 5.83999 31.13 6.35999C31.0917 6.3912 31.0451 6.41069 30.9959 6.41602C30.9468 6.42134 30.8972 6.4123 30.853 6.39001C29.5713 5.65942 28.2034 5.09164 26.781 4.69995C26.7344 4.68565 26.6928 4.65832 26.6613 4.62109C26.6297 4.58387 26.6095 4.53836 26.603 4.48999C26.492 3.63999 26.374 2.78996 26.25 1.95996C26.1652 1.41508 25.8888 0.918371 25.4705 0.559082C25.0522 0.199793 24.5194 0.00154212 23.968 0H20.034C19.4826 0.00154212 18.9498 0.199793 18.5315 0.559082C18.1132 0.918371 17.8368 1.41508 17.752 1.95996C17.628 2.78996 17.51 3.63999 17.399 4.48999C17.3924 4.53831 17.3722 4.58377 17.3406 4.62097C17.3091 4.65817 17.2676 4.68554 17.221 4.69995C15.7986 5.09164 14.4307 5.65942 13.149 6.39001C13.1048 6.4123 13.0552 6.42134 13.006 6.41602C12.9569 6.41069 12.9104 6.3912 12.872 6.35999C12.193 5.83999 11.508 5.31996 10.836 4.82996C10.3919 4.50271 9.8455 4.34503 9.29535 4.38538C8.7452 4.42572 8.22758 4.66152 7.836 5.05005L5.05499 7.82996C4.66666 8.22343 4.43067 8.74207 4.3891 9.29333C4.34752 9.8446 4.50308 10.3927 4.828 10.84C5.328 11.51 5.84401 12.19 6.36401 12.87C6.395 12.9092 6.41376 12.9566 6.41803 13.0063C6.4223 13.0561 6.41187 13.1061 6.388 13.15C5.65894 14.4315 5.09195 15.7986 4.70001 17.22C4.68443 17.2664 4.65644 17.3078 4.61908 17.3395C4.58172 17.3712 4.53636 17.3922 4.48798 17.4C3.64098 17.51 2.78799 17.63 1.96399 17.75C1.4196 17.8354 0.923337 18.1117 0.563904 18.5294C0.20447 18.9471 0.00531995 19.479 0.00201416 20.03V23.97C0.00528175 24.5209 0.204305 25.0527 0.563538 25.4703C0.92277 25.888 1.41881 26.1644 1.96301 26.25C2.79101 26.37 3.64098 26.49 4.48798 26.6C4.53636 26.6078 4.58172 26.6288 4.61908 26.6605C4.65644 26.6922 4.68443 26.7336 4.70001 26.78C5.09152 28.2015 5.65854 29.5687 6.388 30.85C6.41187 30.8939 6.4223 30.9439 6.41803 30.9937C6.41376 31.0434 6.395 31.0908 6.36401 31.13C5.84201 31.81 5.326 32.49 4.828 33.17C4.50323 33.6155 4.34769 34.1621 4.38928 34.7118C4.43088 35.2615 4.66688 35.7785 5.05499 36.17L7.836 38.95C8.22758 39.3385 8.7452 39.5743 9.29535 39.6146C9.8455 39.655 10.3919 39.4973 10.836 39.17C11.508 38.68 12.193 38.16 12.872 37.64C12.9104 37.6088 12.9569 37.5893 13.006 37.584C13.0552 37.5787 13.1048 37.5877 13.149 37.61C14.4307 38.3406 15.7986 38.9084 17.221 39.3C17.2676 39.3145 17.3091 39.3418 17.3406 39.379C17.3722 39.4162 17.3924 39.4617 17.399 39.51C17.51 40.36 17.628 41.21 17.752 42.04C17.8368 42.5849 18.1132 43.0816 18.5315 43.4409C18.9498 43.8002 19.4826 43.9985 20.034 44H23.968C24.5194 43.9985 25.0522 43.8002 25.4705 43.4409C25.8888 43.0816 26.1652 42.5849 26.25 42.04C26.374 41.21 26.492 40.36 26.603 39.51C26.6095 39.4616 26.6297 39.4161 26.6613 39.3789C26.6928 39.3417 26.7344 39.3144 26.781 39.3C28.2034 38.9084 29.5713 38.3406 30.853 37.61C30.8972 37.5877 30.9468 37.5787 30.9959 37.584C31.0451 37.5893 31.0917 37.6088 31.13 37.64C31.809 38.16 32.494 38.68 33.166 39.17C33.6101 39.4973 34.1565 39.655 34.7067 39.6146C35.2568 39.5743 35.7744 39.3385 36.166 38.95L38.947 36.17C39.3354 35.7766 39.5713 35.2579 39.6129 34.7067C39.6545 34.1554 39.4989 33.6073 39.174 33.16C38.674 32.49 38.159 31.81 37.638 31.13C37.6068 31.0909 37.5878 31.0435 37.5836 30.9937C37.5793 30.9438 37.5899 30.8938 37.614 30.85C38.3431 29.5685 38.9101 28.2014 39.302 26.78C39.3159 26.7326 39.3434 26.6902 39.381 26.6582C39.4187 26.6262 39.4649 26.606 39.514 26.6C40.361 26.49 41.214 26.37 42.038 26.25C42.5824 26.1646 43.0787 25.8883 43.4381 25.4706C43.7975 25.0529 43.9967 24.521 44 23.97V20.03C43.9967 19.4791 43.7977 18.9473 43.4385 18.5297C43.0792 18.112 42.5832 17.8356 42.039 17.75ZM41.945 23.97C41.9444 24.0295 41.9231 24.0871 41.8848 24.1327C41.8465 24.1783 41.7935 24.2091 41.735 24.22C40.92 24.34 40.083 24.4599 39.248 24.5699C38.7989 24.6257 38.3763 24.8131 38.0334 25.1085C37.6905 25.4039 37.4426 25.7941 37.321 26.23C36.9736 27.4901 36.4722 28.7026 35.828 29.84C35.6039 30.2339 35.5015 30.6854 35.5337 31.1375C35.5659 31.5895 35.7313 32.0219 36.009 32.38C36.523 33.05 37.032 33.72 37.522 34.39C37.5568 34.4377 37.5733 34.4964 37.5681 34.5553C37.563 34.6141 37.5366 34.669 37.494 34.71L34.713 37.49C34.671 37.5328 34.6152 37.5593 34.5555 37.5648C34.4958 37.5703 34.4361 37.5545 34.387 37.52C33.725 37.03 33.051 36.52 32.387 36.01C32.0279 35.7322 31.5946 35.5668 31.1417 35.5348C30.6888 35.5028 30.2366 35.6054 29.842 35.83C28.7064 36.4699 27.4977 36.9702 26.242 37.3199C25.8044 37.441 25.4124 37.6889 25.1154 38.0323C24.8183 38.3758 24.6296 38.7995 24.573 39.25C24.464 40.08 24.347 40.92 24.225 41.73C24.2172 41.7908 24.1876 41.8467 24.1415 41.8872C24.0955 41.9277 24.0363 41.95 23.975 41.95H20.041C19.9797 41.95 19.9205 41.9277 19.8745 41.8872C19.8285 41.8467 19.7988 41.7908 19.791 41.73C19.669 40.92 19.552 40.08 19.443 39.25C19.3864 38.7995 19.1977 38.3758 18.9007 38.0323C18.6037 37.6889 18.2116 37.441 17.774 37.3199C16.5168 36.9746 15.3075 36.4741 14.174 35.83C13.7794 35.6054 13.3272 35.5028 12.8743 35.5348C12.4214 35.5668 11.9881 35.7322 11.629 36.01C10.96 36.52 10.286 37.03 9.62903 37.52C9.57995 37.5545 9.52022 37.5703 9.46051 37.5648C9.4008 37.5593 9.34495 37.5328 9.30298 37.49L6.52197 34.71C6.47936 34.669 6.45309 34.6141 6.44794 34.5553C6.44279 34.4964 6.45916 34.4377 6.49402 34.39C6.98402 33.73 7.49402 33.05 8.00702 32.38C8.28471 32.0219 8.45009 31.5895 8.4823 31.1375C8.51451 30.6854 8.41209 30.2339 8.18799 29.84C7.54383 28.7026 7.04239 27.4901 6.69501 26.23C6.57338 25.7941 6.3255 25.4039 5.9826 25.1085C5.63971 24.8131 5.21713 24.6257 4.76801 24.5699C3.93301 24.4599 3.09701 24.34 2.28101 24.22C2.22246 24.2091 2.16953 24.1783 2.13123 24.1327C2.09292 24.0871 2.0716 24.0295 2.07098 23.97V20.03C2.0716 19.9705 2.09292 19.9129 2.13123 19.8673C2.16953 19.8217 2.22246 19.7909 2.28101 19.78C3.09701 19.66 3.93301 19.5399 4.76801 19.4399C5.21811 19.3827 5.64124 19.1936 5.98413 18.8965C6.32702 18.5993 6.57435 18.2074 6.69501 17.77C7.04192 16.5097 7.54337 15.2972 8.18799 14.16C8.41209 13.7661 8.51451 13.3146 8.4823 12.8625C8.45009 12.4105 8.28471 11.9781 8.00702 11.62C7.49402 10.95 6.98502 10.28 6.49402 9.60999C6.45956 9.56214 6.44341 9.50356 6.44855 9.44482C6.45369 9.38609 6.47973 9.33117 6.52197 9.29004L9.30298 6.51001C9.34495 6.46719 9.4008 6.44068 9.46051 6.43518C9.52022 6.42969 9.57995 6.44554 9.62903 6.47998C10.29 6.96998 10.965 7.47999 11.629 7.98999C11.9881 8.26784 12.4214 8.43318 12.8743 8.46521C13.3272 8.49724 13.7794 8.39458 14.174 8.17004C15.3095 7.53005 16.5183 7.02976 17.774 6.68005C18.2116 6.55903 18.6037 6.31111 18.9007 5.96765C19.1977 5.6242 19.3864 5.20052 19.443 4.75C19.552 3.92 19.669 3.08002 19.791 2.27002C19.8005 2.20997 19.8307 2.15516 19.8763 2.11499C19.922 2.07483 19.9802 2.05186 20.041 2.05005H23.975C24.0357 2.05186 24.094 2.07483 24.1396 2.11499C24.1853 2.15516 24.2155 2.20997 24.225 2.27002C24.347 3.08002 24.464 3.92 24.573 4.75C24.6296 5.20052 24.8183 5.6242 25.1154 5.96765C25.4124 6.31111 25.8044 6.55903 26.242 6.68005C27.4976 7.03001 28.7063 7.53029 29.842 8.17004C30.2362 8.39515 30.6884 8.49811 31.1413 8.46606C31.5942 8.43402 32.0273 8.26836 32.386 7.98999C33.055 7.47999 33.73 6.96998 34.386 6.47998C34.4351 6.44554 34.4948 6.42969 34.5545 6.43518C34.6142 6.44068 34.67 6.46719 34.712 6.51001L37.493 9.29004C37.5356 9.33095 37.5619 9.38585 37.5671 9.4447C37.5722 9.50355 37.5559 9.56229 37.521 9.60999C37.031 10.28 36.521 10.95 36.008 11.62C35.731 11.9785 35.5661 12.4108 35.5339 12.8627C35.5017 13.3145 35.6037 13.7659 35.827 14.16C36.4716 15.2972 36.9731 16.5097 37.32 17.77C37.4429 18.2062 37.6909 18.5969 38.0334 18.8937C38.3759 19.1905 38.7978 19.3803 39.247 19.4399C40.082 19.5399 40.919 19.66 41.734 19.78C41.7927 19.7909 41.8457 19.8217 41.8842 19.8673C41.9227 19.9129 41.9442 19.9704 41.945 20.03V23.97ZM22 12.45C20.1112 12.4501 18.2649 13.0104 16.6946 14.0599C15.1242 15.1094 13.9003 16.601 13.1777 18.3461C12.455 20.0911 12.266 22.0113 12.6346 23.8638C13.0032 25.7162 13.9128 27.4177 15.2485 28.7532C16.5841 30.0887 18.2858 30.9982 20.1382 31.3666C21.9907 31.735 23.9109 31.5458 25.6559 30.823C27.4009 30.1002 28.8923 28.876 29.9416 27.3055C30.9909 25.7351 31.551 23.8888 31.551 22C31.5486 19.4677 30.5415 17.0399 28.7509 15.2494C26.9602 13.4589 24.5323 12.4521 22 12.45ZM22 29.5C20.5166 29.5 19.0666 29.0601 17.8333 28.236C16.5999 27.4119 15.6386 26.2406 15.0709 24.8701C14.5033 23.4997 14.3547 21.9917 14.6441 20.5369C14.9335 19.082 15.6478 17.7455 16.6967 16.6967C17.7456 15.6478 19.0819 14.9336 20.5368 14.6442C21.9917 14.3548 23.4997 14.5033 24.8701 15.0709C26.2406 15.6386 27.4119 16.5999 28.236 17.8333C29.0601 19.0666 29.5 20.5166 29.5 22C29.4974 23.9883 28.7063 25.8945 27.3004 27.3004C25.8944 28.7064 23.9883 29.4974 22 29.5Z" fill="#546076"/>
</svg>
